<?xml version="1.0" encoding="utf-8"?>
<!-- Generator: Adobe Illustrator 15.1.0, SVG Export Plug-In . SVG Version: 6.00 Build 0)  -->
<!DOCTYPE svg PUBLIC "-//W3C//DTD SVG 1.1//EN" "http://www.w3.org/Graphics/SVG/1.1/DTD/svg11.dtd">
<svg version="1.1" id="レイヤー_1" xmlns="http://www.w3.org/2000/svg" xmlns:xlink="http://www.w3.org/1999/xlink" x="0px"
	 y="0px" width="150px" height="30px" viewBox="0 0 150 30" enable-background="new 0 0 150 30" xml:space="preserve">
<g>
	<path fill="#F9F7F7" d="M24.404,25.324c1.5-0.031,5.511-0.153,7.873-0.458c0.037,0.671,0.075,1.525,0.15,2.196
		c-2.475,0.214-6.224,0.336-7.761,0.336h-9.373c-5.661,0-8.398-2.014-8.398-6.375V3.24l3.674,0.183
		c-0.075,0.305-0.337,0.488-1.012,0.549v9.944c5.736-1.464,13.722-3.904,18.596-6.04l1.912,2.104c-0.113,0.061-0.3,0.092-0.45,0.092
		c-0.188,0-0.337-0.031-0.525-0.092c-4.536,1.861-13.084,4.423-19.533,6.009v5.094c0,3.081,1.837,4.24,5.699,4.24H24.404z
		 M27.928,2.355c1.725,1.25,3.599,3.142,4.649,4.484l-1.425,0.885c-1.05-1.342-2.999-3.325-4.574-4.484L27.928,2.355z M32.54,0.525
		c1.687,1.25,3.599,3.111,4.649,4.453l-1.425,0.885c-1.05-1.342-3.037-3.294-4.574-4.453L32.54,0.525z"/>
	<path fill="#F9F7F7" d="M43.305,4.521c3.899,1.007,8.398,2.593,11.172,4.148l-1.425,1.922c-2.699-1.556-7.123-3.172-10.947-4.24
		L43.305,4.521z M43.155,25.659c13.309-3.355,22.157-9.425,26.656-17.874c0.788,0.519,1.65,0.915,2.437,1.25
		c-4.686,8.358-13.834,14.855-26.543,18.301c-0.038,0.274-0.262,0.579-0.525,0.701L43.155,25.659z"/>
	<path fill="#F9F7F7" d="M97.597,15.35c0,1.738-1.725,3.142-3.861,3.142s-3.861-1.403-3.861-3.142c0-1.739,1.725-3.142,3.861-3.142
		C95.947,12.208,97.597,13.672,97.597,15.35z"/>
	<path fill="#F9F7F7" d="M132.432,15.868v9.608h9.485v-7.626l3.299,0.184c-0.037,0.213-0.225,0.365-0.75,0.427v10.92h-2.549v-1.922
		h-21.183v2.074h-2.512V17.851l3.262,0.184c-0.038,0.213-0.263,0.335-0.75,0.396v7.046h9.11v-9.608h-15.709v-2.013h15.709V7.083
		h-7.873c-1.274,2.379-2.85,4.484-4.574,6.04c-0.487-0.366-1.462-0.915-2.137-1.19c2.85-2.41,5.174-6.619,6.448-10.919l3.262,0.671
		c-0.075,0.213-0.337,0.335-0.787,0.335c-0.338,1.037-0.75,2.074-1.2,3.081h22.27v1.983h-12.821v6.771h15.934v2.013H132.432z"/>
</g>
</svg>
