<?xml version="1.0" encoding="utf-8"?>
<!-- Generator: Adobe Illustrator 15.1.0, SVG Export Plug-In . SVG Version: 6.00 Build 0)  -->
<!DOCTYPE svg PUBLIC "-//W3C//DTD SVG 1.1//EN" "http://www.w3.org/Graphics/SVG/1.1/DTD/svg11.dtd">
<svg version="1.1" id="レイヤー_1" xmlns="http://www.w3.org/2000/svg" xmlns:xlink="http://www.w3.org/1999/xlink" x="0px"
	 y="0px" width="150px" height="30px" viewBox="0 0 150 30" enable-background="new 0 0 150 30" xml:space="preserve">
<g>
	<path fill="#FFFFFF" d="M20.146,17.41c-0.25-0.468-0.65-1.022-1.15-1.607l-5.451,0.175v12.513h-3.05V16.065
		c-2.85,0.059-5.451,0.146-7.5,0.176c-0.05,0.233-0.35,0.321-0.7,0.38l-0.9-2.192h3.7c1.1-0.76,2.3-1.638,3.45-2.573
		c-1.55-1.315-4.25-3.011-6.65-4.239l1.7-1.287c0.5,0.234,1,0.497,1.5,0.79c1.75-1.725,3.8-4.093,4.95-5.789l3.65,0.906
		c-0.2,0.175-0.5,0.234-1.05,0.234c-1.4,1.695-3.7,4.093-5.6,5.73c1.3,0.76,2.45,1.521,3.25,2.193c2.25-1.959,4.4-4.035,5.95-5.73
		l3.55,0.994c-0.2,0.146-0.6,0.234-1.15,0.234c-2.6,2.485-6.701,5.964-10.301,8.508l9.301-0.088c-0.95-0.994-2.05-2.017-3.15-2.895
		l2.55-0.702c2.35,1.842,4.85,4.327,5.8,5.935L20.146,17.41z M8.345,18.727c-0.1,0.175-0.4,0.292-0.95,0.292
		c-0.7,2.485-1.85,5.292-3.4,7.017c-0.65-0.263-1.75-0.556-2.5-0.76c1.45-1.638,2.55-4.444,3.2-7.104L8.345,18.727z M19.045,24.193
		c-0.45-1.521-1.8-3.83-3.2-5.613l2.6-0.497c1.5,1.754,2.85,4.034,3.4,5.555L19.045,24.193z M48.447,14.517h-9.351
		c0.8,6.578,2.5,11.548,5.9,11.957h0.05c0.8,0,1.45-1.93,1.8-4.531c0.65,0.38,1.8,0.848,2.5,1.081c-0.65,3.83-2.2,5.497-4.35,5.497
		c-0.45,0-0.9-0.059-1.4-0.205c-4.8-0.848-6.701-6.314-7.601-13.799h-8.65v10.642c3.15-0.351,6.55-0.761,9.95-1.17l0.3,1.667
		c-5.601,0.76-11.451,1.52-15.201,1.959c-0.05,0.204-0.3,0.38-0.65,0.438l-1.55-2.135l3.951-0.409V4.08l2.15,0.438
		c6.45-0.819,13.551-2.046,17.551-3.187l3.15,1.549c-0.2,0.117-0.3,0.117-1,0.117c-1.8,0.438-4,0.877-6.45,1.316
		c-0.1,0.205-0.45,0.351-1.05,0.409c0.05,2.719,0.15,5.409,0.4,7.923h9.551V14.517z M27.346,12.646h8.45
		c-0.25-2.397-0.4-4.97-0.5-7.66c-2.6,0.409-5.35,0.789-7.95,1.082V12.646z"/>
	<path fill="#FFFFFF" d="M80.342,14.897c0,1.666-2.3,3.01-5.15,3.01s-5.15-1.345-5.15-3.01c0-1.667,2.3-3.012,5.15-3.012
		C78.143,11.885,80.342,13.289,80.342,14.897z"/>
	<path fill="#FFFFFF" d="M147.489,7.851h-27.701c-1.551,1.929-3.4,3.83-5.551,5.584h11.551V9.342l4.351,0.146
		c-0.051,0.205-0.301,0.351-1,0.409v3.538h15.601v9.647c0,2.28-2,2.339-10.601,2.28c-0.2-0.525-0.7-1.228-1.15-1.754
		c1.7,0.029,3.301,0.029,4.601,0.029h2.65c0.85-0.029,1.1-0.146,1.1-0.585v-7.717h-12.2v13.185h-3.351V15.335h-11.2v10.378h-3.351
		V15.657c-2.25,1.52-4.801,2.923-7.65,4.092c-0.45-0.468-1.4-1.228-2.051-1.666c6.251-2.514,11.051-6.227,14.451-10.232h-13.001
		v-1.9h14.501c1.15-1.55,2.051-3.099,2.801-4.648l4.4,0.672c-0.2,0.205-0.551,0.321-1.2,0.321c-0.65,1.199-1.4,2.427-2.25,3.655
		h26.251V7.851z"/>
</g>
</svg>
