<?xml version="1.0" encoding="utf-8"?>
<!-- Generator: Adobe Illustrator 15.1.0, SVG Export Plug-In . SVG Version: 6.00 Build 0)  -->
<!DOCTYPE svg PUBLIC "-//W3C//DTD SVG 1.1//EN" "http://www.w3.org/Graphics/SVG/1.1/DTD/svg11.dtd">
<svg version="1.1" id="レイヤー_1" xmlns="http://www.w3.org/2000/svg" xmlns:xlink="http://www.w3.org/1999/xlink" x="0px"
	 y="0px" width="150px" height="30px" viewBox="0 0 150 30" enable-background="new 0 0 150 30" xml:space="preserve">
<g>
	<path fill="#FDFDFE" d="M5.681,10.707c0,2.105-0.05,4.211-0.325,6.262c0.701,0.945,2.502,3.752,2.928,4.454l-1.151,1.269
		c-0.425-0.864-1.326-2.456-2.102-3.725c-0.526,2.672-1.527,5.183-3.278,7.423c-0.25-0.378-0.776-0.945-1.126-1.188
		c3.203-4.157,3.553-9.394,3.553-14.496V1.259l2.002,0.135c-0.025,0.162-0.175,0.297-0.5,0.351V10.707z M0.651,13.433
		c0.951-1.458,1.376-4.13,1.426-6.586l1.176,0.189c-0.05,2.591-0.425,5.479-1.527,7.153L0.651,13.433z M9.184,6.118
		c-0.05,0.162-0.225,0.243-0.5,0.243c-0.45,1.592-1.301,4.022-1.977,5.506L5.73,11.381c0.626-1.565,1.401-4.157,1.802-5.938
		L9.184,6.118z M11.586,20.289c-0.601,2.213-1.526,4.615-3.178,6.073l-1.251-0.918c1.551-1.295,2.577-3.563,3.103-5.642
		L11.586,20.289z M23.898,8.736H20.37c0.601,3.941,1.827,7.611,3.854,9.285c-0.35,0.324-0.876,0.918-1.101,1.35
		c-1.602-1.484-2.677-4.022-3.378-6.991c-0.601,2.511-1.876,4.913-4.529,6.938c-0.225-0.351-0.701-0.918-1.051-1.161
		c3.528-2.699,4.404-6.1,4.579-9.42h-2.828V8.52c-1.176,5.237-3.378,8.854-6.231,10.851c-0.2-0.404-0.601-0.944-0.951-1.269
		c1.427-0.918,2.703-2.375,3.754-4.292c-0.625-0.675-1.651-1.511-2.527-2.078l0.75-0.972c0.801,0.486,1.752,1.214,2.377,1.808
		c0.325-0.729,0.625-1.484,0.876-2.294c-0.651-0.567-1.677-1.242-2.527-1.701l0.625-1.107c0.776,0.378,1.651,0.891,2.302,1.404
		c0.25-0.999,0.476-2.051,0.625-3.158h-2.878c-0.801,2.618-1.902,4.994-3.203,6.667c-0.25-0.297-0.776-0.755-1.101-0.999
		c1.802-2.213,3.178-6.127,3.929-10.176l1.852,0.459c-0.05,0.216-0.225,0.324-0.525,0.324c-0.15,0.756-0.326,1.512-0.526,2.241
		h3.003l0.275-0.054l0.876,0.297c-0.025,0.162-0.1,0.243-0.15,0.324c-0.1,0.81-0.225,1.62-0.35,2.375h2.603V1.286l1.927,0.135
		c-0.025,0.189-0.15,0.324-0.475,0.351V7.17h3.653V8.736z M13.563,25.957c0.025-1.403-0.226-3.59-0.576-5.29l1.376-0.216
		c0.425,1.674,0.676,3.859,0.676,5.264L13.563,25.957z M18.043,26.012c-0.2-1.458-0.901-3.645-1.652-5.317l1.326-0.433
		c0.801,1.646,1.527,3.86,1.777,5.291L18.043,26.012z M22.822,26.39c-0.5-1.593-1.776-4.157-2.978-6.047l1.326-0.566
		c1.251,1.862,2.552,4.373,3.078,5.965L22.822,26.39z M22.047,1.907c0.75,1.269,1.501,2.916,1.802,3.995l-1.227,0.567
		c-0.275-1.134-1.001-2.807-1.702-4.076L22.047,1.907z"/>
	<path fill="#FDFDFE" d="M36.253,16.429c0.851-0.458,1.676-0.621,2.477-0.621c1.276,0,2.202,1.053,2.202,2.753
		c0,0.702-0.075,1.538-0.075,2.187c0,2.753,1.501,2.753,3.653,2.753c1.101,0,2.353-0.081,3.253-0.243
		c0,1.215,0.075,1.917,0.075,1.917c-0.976,0.107-2.152,0.162-3.253,0.162c-1.026,0-1.952-0.055-2.603-0.162
		c-1.802-0.297-2.828-1.728-2.853-3.32c0-0.621,0.05-1.835,0.05-2.646c0-1.134-0.4-1.781-1.276-1.781
		c-1.201,0-3.053,0.756-4.479,2.24c-1.451,1.539-4.179,4.508-5.03,5.588c0,0-0.275-0.378-1.351-1.431
		c2.377-2.618,10.235-10.851,12.787-13.523c-1.827,0.189-7.507,0.54-10.36,0.702c-0.075,0.162-0.2,0.27-0.4,0.297l-0.15-2.159
		c3.503-0.108,10.085-0.459,12.612-0.702l0.375-0.243l1.451,1.431c-0.15,0.135-0.325,0.189-0.601,0.216
		c-1.576,1.593-4.654,4.643-6.506,6.56V16.429z M42.534,5.632c-2.677-0.837-7.382-1.646-10.71-1.809l0.375-1.809
		c3.454,0.162,7.958,0.891,10.811,1.782L42.534,5.632z"/>
	<path fill="#FDFDFE" d="M60.494,2.042c-0.075,0.216-0.326,0.432-0.776,0.459c-0.175,1.188-0.4,2.591-0.625,3.644
		c2.452-0.162,5.18-0.621,7.357-1.323l0.275,1.835c-2.327,0.621-5.08,1.053-7.958,1.295c-1.201,5.183-2.853,9.394-5.305,13.28
		l-1.677-0.729c2.277-3.536,4.004-7.585,5.08-12.498h-4.98V6.253h2.978c0.775,0,1.576-0.027,2.302-0.027
		c0.301-1.431,0.526-2.969,0.701-4.562L60.494,2.042z M67.15,13.541c0.025,2.186,0.175,3.671,0.326,5.533
		c1.602,0.675,3.678,1.836,5.33,3.131l-0.901,1.728c-1.376-1.133-3.078-2.186-4.429-2.834c0,2.699-1.001,4.805-4.68,4.805
		c-2.778,0-4.905-1.35-4.88-3.887c0-2.699,2.627-3.995,4.93-3.995c0.901,0,1.827,0.189,2.828,0.486
		c-0.101-1.728-0.226-3.482-0.226-4.751L67.15,13.541z M65.773,20.289c-1.026-0.432-2.077-0.621-2.978-0.621
		c-1.501,0-3.278,0.648-3.303,2.321c0,1.539,1.401,2.268,3.353,2.268c1.802,0,2.953-0.944,2.953-2.727
		C65.799,21.099,65.799,20.694,65.773,20.289z M72.63,10.761c-2.828,0.027-6.256,0.513-8.859,1.322l-0.275-1.7
		c2.853-0.891,6.306-1.458,9.034-1.458L72.63,10.761z"/>
	<path fill="#FDFDFE" d="M80.08,4.903c-0.051,0.243-0.325,0.405-0.676,0.432c-0.301,2.024-0.476,4.454-0.476,6.721
		c0,0.999,0.05,1.971,0.101,2.834c0.3,4.589,2.026,7.369,3.953,7.342c1.001,0,2.303-2.753,3.203-5.776
		c0.351,0.378,1.026,0.891,1.451,1.161c-1.15,3.644-2.602,6.612-4.679,6.667c-3.179,0.054-5.381-4.104-5.731-9.286
		c-0.074-1.026-0.1-2.16-0.1-3.374c0-2.375,0.125-4.967,0.375-7.261L80.08,4.903z M96.671,17.455
		c-0.7-4.724-2.928-8.125-6.306-10.149l1.101-1.458c3.653,2.105,6.331,5.993,7.057,10.986L96.671,17.455z"/>
	<path fill="#FDFDFE" d="M120.687,23.609c-2.202,0.432-5.13,0.62-7.683,0.62c-2.052,0-3.854-0.135-4.829-0.351
		c-3.028-0.729-4.329-2.78-4.329-5.155c0-2.024,1.051-4.13,2.552-5.75l1.452,0.81c-1.402,1.539-2.203,3.293-2.203,4.778
		c0,1.593,0.977,2.996,3.129,3.536c0.851,0.188,2.302,0.297,4.004,0.297c2.427,0,5.38-0.216,7.782-0.729L120.687,23.609z
		 M109.451,10.005c1.301-1.107,3.077-2.402,4.429-3.131V6.847c-1.901,0.243-6.256,0.324-9.034,0.324c0-0.513,0-1.403-0.024-1.889
		h1.352c3.203,0,9.759-0.054,12.912-0.864l0.2,1.97c-0.826,0.135-1.426,0.27-2.627,0.81c-1.402,0.621-3.829,2.079-5.781,3.779
		L109.451,10.005z M120.662,13.838c-0.727-1.188-2.277-2.808-3.354-3.671l0.825-0.836c1.201,0.945,2.653,2.51,3.429,3.644
		L120.662,13.838z M123.289,11.273c-0.7-1.08-2.177-2.699-3.354-3.644l0.826-0.864c1.227,0.999,2.678,2.537,3.429,3.671
		L123.289,11.273z"/>
	<path fill="#FDFDFE" d="M146.68,9.06c-0.075,0.297-0.351,0.486-0.727,0.486c-0.275,1.862-0.676,3.833-1.101,5.506
		c1.352,0.621,2.777,1.323,4.204,2.106l-0.801,1.809c-1.352-0.729-2.652-1.431-3.929-2.024c-1.201,3.887-2.928,6.721-5.581,8.61
		c-0.35-0.378-0.976-0.837-1.426-1.134c2.627-1.862,4.254-4.399,5.405-8.26c-2.527-1.08-4.83-1.835-6.682-1.998
		c-1.727,6.802-3.278,8.583-6.281,8.583s-3.578-2.591-3.578-4.237c0-4.184,4.028-6.128,8.508-6.155
		c0.525-2.159,1.001-4.805,1.352-7.612c-1.177,0.108-5.181,0.405-7.082,0.54c-0.101,0.188-0.3,0.324-0.525,0.377l-0.226-2.186
		c2.152-0.081,6.807-0.405,8.309-0.567c0.275-0.027,0.375-0.162,0.551-0.297l1.551,0.999c-0.125,0.216-0.325,0.324-0.625,0.432
		c-0.4,2.996-1.001,6.1-1.552,8.421c1.927,0.162,4.229,0.891,6.731,1.917c0.426-1.62,0.801-3.698,1.076-5.884L146.68,9.06z
		 M134.292,14.054c-3.604,0.054-6.481,1.593-6.481,4.454c0,1.512,0.676,2.537,1.852,2.537
		C131.489,21.045,132.69,20.37,134.292,14.054z"/>
</g>
</svg>
