<?xml version="1.0" encoding="utf-8"?>
<!-- Generator: Adobe Illustrator 15.1.0, SVG Export Plug-In . SVG Version: 6.00 Build 0)  -->
<!DOCTYPE svg PUBLIC "-//W3C//DTD SVG 1.1//EN" "http://www.w3.org/Graphics/SVG/1.1/DTD/svg11.dtd">
<svg version="1.1" id="レイヤー_1" xmlns="http://www.w3.org/2000/svg" xmlns:xlink="http://www.w3.org/1999/xlink" x="0px"
	 y="0px" width="150px" height="30px" viewBox="0 0 150 30" enable-background="new 0 0 150 30" xml:space="preserve">
<g>
	<path fill="#F7F5F5" d="M7.143,11.402c0,2.286-0.06,4.572-0.39,6.801c0.839,1.025,2.996,4.074,3.505,4.836L8.88,24.416
		c-0.509-0.938-1.588-2.666-2.516-4.045C5.735,23.273,4.537,26,2.44,28.432c-0.3-0.41-0.929-1.025-1.348-1.289
		c3.834-4.514,4.253-10.201,4.253-15.74V1.143L7.742,1.29c-0.03,0.176-0.21,0.322-0.599,0.381V11.402z M1.122,14.363
		C2.26,12.78,2.77,9.878,2.829,7.21l1.408,0.205c-0.06,2.814-0.509,5.951-1.827,7.768L1.122,14.363z M11.336,6.419
		c-0.06,0.176-0.27,0.264-0.599,0.264c-0.539,1.729-1.558,4.367-2.366,5.979l-1.168-0.528c0.749-1.7,1.678-4.514,2.157-6.449
		L11.336,6.419z M14.211,21.809c-0.719,2.402-1.827,5.012-3.804,6.594L8.91,27.406c1.857-1.406,3.085-3.869,3.714-6.125
		L14.211,21.809z M28.948,9.262h-4.223c0.719,4.28,2.187,8.267,4.612,10.083c-0.419,0.352-1.048,0.996-1.318,1.465
		c-1.917-1.611-3.205-4.367-4.043-7.591c-0.719,2.726-2.247,5.335-5.421,7.533c-0.27-0.381-0.839-0.996-1.258-1.26
		c4.224-2.932,5.272-6.625,5.481-10.23h-3.385V9.028c-1.408,5.687-4.043,9.615-7.458,11.783c-0.24-0.439-0.719-1.025-1.138-1.377
		c1.707-0.996,3.235-2.58,4.493-4.661c-0.749-0.733-1.977-1.642-3.025-2.257l0.898-1.055c0.958,0.527,2.097,1.319,2.846,1.964
		c0.389-0.792,0.749-1.612,1.048-2.492c-0.779-0.616-2.007-1.348-3.025-1.847l0.749-1.202c0.929,0.41,1.977,0.967,2.756,1.524
		c0.299-1.084,0.569-2.228,0.749-3.429H14.84c-0.958,2.843-2.276,5.423-3.834,7.24c-0.299-0.322-0.929-0.82-1.318-1.084
		c2.157-2.403,3.804-6.654,4.703-11.05l2.216,0.498c-0.06,0.234-0.27,0.352-0.629,0.352c-0.18,0.821-0.389,1.642-0.629,2.433h3.594
		l0.33-0.059l1.048,0.322c-0.03,0.176-0.12,0.264-0.18,0.352c-0.12,0.879-0.27,1.759-0.419,2.579h3.115v-6.39l2.306,0.146
		c-0.03,0.205-0.18,0.352-0.569,0.381v5.862h4.373V9.262z M16.578,27.963c0.03-1.523-0.27-3.898-0.689-5.744l1.647-0.234
		c0.509,1.816,0.809,4.191,0.809,5.715L16.578,27.963z M21.939,28.021c-0.24-1.582-1.079-3.957-1.977-5.773l1.587-0.469
		c0.958,1.787,1.827,4.191,2.127,5.744L21.939,28.021z M27.66,28.432c-0.599-1.729-2.126-4.514-3.564-6.564l1.588-0.615
		c1.498,2.021,3.055,4.748,3.684,6.477L27.66,28.432z M26.732,1.846c0.898,1.378,1.797,3.166,2.156,4.338L27.42,6.8
		c-0.329-1.231-1.198-3.049-2.037-4.426L26.732,1.846z"/>
	<path fill="#F7F5F5" d="M43.75,17.617c1.019-0.5,2.007-0.676,2.965-0.676c1.528,0,2.636,1.145,2.636,2.99
		c0,0.762-0.09,1.672-0.09,2.375c0,2.99,1.797,2.99,4.373,2.99c1.318,0,2.816-0.088,3.894-0.264c0,1.318,0.09,2.08,0.09,2.08
		c-1.168,0.117-2.576,0.176-3.894,0.176c-1.229,0-2.336-0.059-3.115-0.176c-2.157-0.322-3.385-1.875-3.415-3.605
		c0-0.674,0.06-1.992,0.06-2.873c0-1.23-0.479-1.934-1.527-1.934c-1.438,0-3.654,0.82-5.362,2.432
		c-1.737,1.672-5.002,4.896-6.021,6.068c0,0-0.33-0.41-1.617-1.553c2.845-2.844,12.25-11.784,15.306-14.686
		c-2.187,0.205-8.986,0.586-12.4,0.762c-0.09,0.176-0.24,0.293-0.479,0.322l-0.18-2.345C39.167,9.585,47.044,9.204,50.07,8.94
		l0.449-0.264l1.737,1.553c-0.18,0.146-0.39,0.206-0.719,0.235c-1.887,1.729-5.571,5.042-7.788,7.124V17.617z M51.268,5.892
		c-3.205-0.909-8.836-1.788-12.82-1.964l0.449-1.964c4.134,0.176,9.525,0.968,12.94,1.935L51.268,5.892z"/>
	<path fill="#F7F5F5" d="M71.371,14.011c1.977-0.997,5.062-1.7,7.428-1.7c4.763,0,7.758,2.726,7.758,7.035
		c0,5.305-4.763,8.236-10.783,8.236c-3.894,0-6.56-1.523-6.56-4.104c0-2.168,2.187-3.928,4.913-3.928
		c3.384,0,5.661,2.639,6.11,5.305c2.396-0.879,4.134-2.754,4.134-5.48c0-3.166-2.396-5.188-6.17-5.188
		c-4.493,0-8.896,1.963-10.873,3.84c-0.898,0.82-2.067,2.051-2.875,2.959l-1.528-1.494C65.62,16.736,74.187,8.735,78.26,5.012
		c-1.737,0.234-7.728,0.469-11.143,0.586c-0.09,0.206-0.389,0.381-0.629,0.44l-0.24-2.492c4.044-0.029,11.772-0.322,13.958-0.645
		l0.449-0.206l1.588,1.905c-0.15,0.117-0.42,0.235-0.72,0.264c-2.126,1.7-7.817,6.917-10.154,9.116V14.011z M75.504,25.736
		c0.898,0,1.947-0.117,2.725-0.293c-0.329-2.258-2.036-4.162-4.253-4.162c-1.558,0-2.936,0.82-2.936,2.168
		C71.041,25.238,73.527,25.736,75.504,25.736z"/>
	<path fill="#F7F5F5" d="M114.897,25.414c-2.636,0.469-6.141,0.674-9.195,0.674c-2.456,0-4.613-0.146-5.781-0.381
		c-3.624-0.793-5.182-3.02-5.182-5.6c0-2.197,1.258-4.484,3.055-6.243l1.737,0.879c-1.677,1.67-2.636,3.577-2.636,5.188
		c0,1.73,1.168,3.254,3.744,3.84c1.019,0.205,2.756,0.322,4.793,0.322c2.905,0,6.439-0.234,9.315-0.791L114.897,25.414z
		 M101.448,10.64c1.558-1.202,3.685-2.609,5.302-3.4V7.21c-2.276,0.264-7.488,0.352-10.813,0.352c0-0.557,0-1.524-0.03-2.052h1.617
		c3.834,0,11.682-0.059,15.456-0.938l0.239,2.14c-0.988,0.146-1.707,0.293-3.145,0.879c-1.678,0.674-4.583,2.257-6.919,4.104
		L101.448,10.64z M114.867,14.802c-0.868-1.29-2.726-3.048-4.014-3.986l0.988-0.909c1.438,1.026,3.176,2.726,4.104,3.957
		L114.867,14.802z M118.013,12.018c-0.839-1.172-2.606-2.931-4.014-3.957l0.988-0.938c1.468,1.084,3.205,2.755,4.104,3.986
		L118.013,12.018z"/>
	<path fill="#F7F5F5" d="M146.023,9.614c-0.09,0.322-0.419,0.527-0.868,0.527c-0.33,2.022-0.809,4.163-1.318,5.979
		c1.617,0.674,3.325,1.438,5.032,2.287l-0.958,1.963c-1.618-0.791-3.176-1.553-4.703-2.197c-1.438,4.221-3.505,7.299-6.68,9.35
		c-0.419-0.41-1.168-0.908-1.707-1.23c3.145-2.023,5.092-4.777,6.47-8.971c-3.025-1.172-5.781-1.992-7.997-2.168
		c-2.067,7.387-3.924,9.32-7.519,9.32s-4.283-2.813-4.283-4.602c0-4.543,4.822-6.654,10.184-6.683
		c0.629-2.345,1.198-5.217,1.618-8.266c-1.408,0.117-6.2,0.439-8.478,0.586c-0.119,0.205-0.359,0.352-0.629,0.411l-0.27-2.375
		c2.576-0.088,8.147-0.439,9.944-0.615c0.33-0.029,0.449-0.176,0.659-0.323l1.857,1.084c-0.15,0.235-0.39,0.352-0.749,0.469
		c-0.479,3.253-1.198,6.625-1.857,9.146c2.307,0.176,5.063,0.967,8.058,2.081c0.51-1.759,0.959-4.016,1.288-6.39L146.023,9.614z
		 M131.197,15.037c-4.313,0.059-7.758,1.729-7.758,4.836c0,1.643,0.809,2.756,2.216,2.756
		C127.842,22.629,129.28,21.896,131.197,15.037z"/>
</g>
</svg>
