<?xml version="1.0" encoding="utf-8"?>
<!-- Generator: Adobe Illustrator 15.1.0, SVG Export Plug-In . SVG Version: 6.00 Build 0)  -->
<!DOCTYPE svg PUBLIC "-//W3C//DTD SVG 1.1//EN" "http://www.w3.org/Graphics/SVG/1.1/DTD/svg11.dtd">
<svg version="1.1" id="レイヤー_1" xmlns="http://www.w3.org/2000/svg" xmlns:xlink="http://www.w3.org/1999/xlink" x="0px"
	 y="0px" width="150px" height="30px" viewBox="0 0 150 30" enable-background="new 0 0 150 30" xml:space="preserve">
<g>
	<path fill="#FFFFFF" d="M0.992,17.572c1.896-2.48,5.838-7.935,7.26-9.825C8.9,6.941,9.549,6.57,10.198,6.57
		c0.673,0,1.347,0.434,2.021,1.177c3.218,3.657,8.408,10.816,12.175,16.891l-1.497,1.704c-3.542-6.104-8.757-13.45-11.551-16.673
		c-0.424-0.496-0.749-0.775-1.073-0.775S9.649,9.204,9.25,9.669c-1.172,1.58-4.815,6.787-6.486,9.019
		c0.025,0.062,0.025,0.155,0.025,0.217c0,0.248-0.1,0.496-0.25,0.651L0.992,17.572z M19.902,1.859c1.522,0,2.769,1.55,2.769,3.471
		s-1.247,3.471-2.769,3.471c-1.572,0-2.819-1.549-2.819-3.471C17.083,3.347,18.38,1.859,19.902,1.859z M21.848,5.33
		c0-1.364-0.873-2.479-1.946-2.479c-1.098,0-1.996,1.116-1.996,2.479c0,1.333,0.898,2.448,1.996,2.448
		C21.025,7.778,21.848,6.601,21.848,5.33z"/>
	<path fill="#FFFFFF" d="M30.779,10.567c0.749,1.891,1.572,4.866,1.871,6.663l-1.397,0.465c-0.299-1.797-1.073-4.618-1.821-6.601
		L30.779,10.567z M45.673,10.784c-0.05,0.279-0.299,0.341-0.524,0.31c-1.946,9.049-5.613,14.597-11.651,17.634
		c-0.199-0.372-0.648-1.085-0.973-1.426c5.962-2.913,9.38-7.995,11.202-17.231L45.673,10.784z M36.842,9.08
		c0.524,2.076,0.998,5.051,1.172,7.035l-1.472,0.341c-0.15-1.984-0.624-4.835-1.173-6.973L36.842,9.08z"/>
	<path fill="#FFFFFF" d="M69.598,18.749c-2.544-1.704-6.037-3.719-8.757-5.052v15.496H58.97V2.262l2.52,0.186
		c-0.025,0.341-0.225,0.558-0.649,0.651v9.049l0.375-0.651c2.919,1.333,6.786,3.471,9.38,5.176L69.598,18.749z"/>
	<path fill="#FFFFFF" d="M83.07,15.867c-1.123,3.626-2.77,6.819-4.69,9.174l-1.447-1.178c1.871-2.17,3.493-5.145,4.516-8.74
		L83.07,15.867z M88.409,11.094v14.659c0,3.378-1.921,3.378-5.913,3.378c-0.1-0.558-0.3-1.456-0.549-2.076
		c0.724,0.031,1.521,0.031,2.195,0.031h1.447c0.698,0,1.022-0.558,1.022-1.302v-14.69H78.13V9.018h8.482V2.572l2.37,0.155
		c-0.024,0.31-0.199,0.526-0.573,0.588v5.703h8.432v2.076H88.409z M92.875,14.906c1.82,2.511,3.916,6.137,5.264,9.019l-1.597,1.146
		c-1.223-2.851-3.418-6.817-5.09-9.205L92.875,14.906z M92.575,2.293c1.123,1.24,2.395,3.13,3.118,4.524l-0.947,0.899
		c-0.724-1.364-2.046-3.378-3.119-4.494L92.575,2.293z M96.168,0.898c1.147,1.271,2.444,3.13,3.144,4.494l-0.948,0.93
		c-0.724-1.364-2.071-3.316-3.119-4.494L96.168,0.898z"/>
	<path fill="#FFFFFF" d="M119.494,18.749c-2.545-1.704-6.038-3.719-8.757-5.052v15.496h-1.871V2.262l2.52,0.186
		c-0.025,0.341-0.225,0.558-0.648,0.651v9.049l0.374-0.651c2.919,1.333,6.786,3.471,9.381,5.176L119.494,18.749z"/>
	<path fill="#FFFFFF" d="M132.565,7.127c-0.024,0.279-0.249,0.465-0.573,0.527c-0.15,8.336-0.699,15.93-4.541,21.477
		c-0.399-0.371-0.998-0.836-1.497-1.177c3.718-5.021,4.167-12.769,4.241-21.105L132.565,7.127z M139.027,24.979
		c4.166-2.51,6.86-7.035,8.308-12.458c0.374,0.403,1.123,0.93,1.547,1.208c-1.771,6.261-4.865,10.878-10.179,14.008
		c-0.075,0.248-0.25,0.496-0.424,0.62l-1.298-2.045l0.274-0.465V3.099l2.32,0.155c-0.025,0.279-0.199,0.527-0.549,0.589V24.979z"/>
</g>
</svg>
