<?xml version="1.0" encoding="utf-8"?>
<!-- Generator: Adobe Illustrator 15.1.0, SVG Export Plug-In . SVG Version: 6.00 Build 0)  -->
<!DOCTYPE svg PUBLIC "-//W3C//DTD SVG 1.1//EN" "http://www.w3.org/Graphics/SVG/1.1/DTD/svg11.dtd">
<svg version="1.1" id="レイヤー_1" xmlns="http://www.w3.org/2000/svg" xmlns:xlink="http://www.w3.org/1999/xlink" x="0px"
	 y="0px" width="150px" height="30px" viewBox="0 0 150 30" enable-background="new 0 0 150 30" xml:space="preserve">
<g>
	<path fill="#FFFEFE" d="M4.326,1.717c3.993,0,9.017-0.196,10.498-0.433l0.516,0.649c-0.236,0.031-0.559,0.165-1.009,0.35
		C12.162,3.148,9.028,4.23,6.473,5.074c2.984-0.298,9.082-0.741,13.096-0.71v0.731c-0.3-0.011-0.644-0.011-0.966-0.011
		c-1.16,0-2.383,0.042-3.285,0.155c-1.847,0.247-6.312,1.514-6.312,2.925c0,0.639,0.816,0.855,1.116,0.927
		c0.966,0.257,3.306,0.443,5.324,0.505l-0.472,0.721c-5.195-0.196-7.579-0.772-7.579-2.091c0-1.329,3.006-2.451,5.11-2.987
		c-3.671,0.186-7.3,0.546-10.864,0.989L1.363,5.527C2.608,5.404,3.489,5.26,4.176,5.064c1.61-0.453,6.355-2.122,8.137-2.935
		c-1.331,0.103-4.015,0.206-5.238,0.237c-0.623,0.021-1.481,0.031-2.04,0.051C4.949,2.469,4.691,2.541,4.476,2.541L4.326,1.717z"/>
	<path fill="#FFFEFE" d="M33.353,2.829c-0.086,0.093-0.258,0.165-0.537,0.165c-0.773,3.204-3.005,5.995-6.569,5.995
		c-1.803,0-3.435-0.865-3.435-2.493c0-2.472,4.015-4.542,9.661-4.542c6.205,0,8.888,1.885,8.888,3.893
		c0,2.452-2.963,3.636-8.158,4.213c-0.193-0.165-0.558-0.443-0.902-0.628c4.938-0.453,7.471-1.607,7.471-3.553
		c0-1.7-2.275-3.245-7.299-3.245c-0.215,0-0.451,0.01-0.644,0.021L33.353,2.829z M31.292,2.695c-4.337,0.257-7.021,1.978-7.021,3.78
		c0,1.102,0.987,1.792,2.018,1.792C28.887,8.267,30.754,5.517,31.292,2.695z"/>
	<path fill="#FFFEFE" d="M46.277,4.621c-0.773,0.628-1.589,1.205-2.447,1.689c-0.172-0.165-0.516-0.495-0.751-0.649
		c1.975-1.071,3.907-2.863,5.109-4.646l1.696,0.268c-0.043,0.072-0.215,0.113-0.473,0.103c-0.515,0.69-1.116,1.38-1.803,2.039
		l0.494,0.072c-0.021,0.062-0.15,0.113-0.429,0.134v6.901h-1.396V4.621z M52.61,8.906c0,0.608,0.3,0.752,1.911,0.752h5.904
		c1.46,0,1.696-0.33,1.911-1.648c0.343,0.124,0.923,0.237,1.331,0.278c-0.279,1.514-0.773,2.008-3.199,2.008h-5.947
		c-2.555,0-3.328-0.278-3.328-1.401V5.414l-2.405,0.402l-0.451-0.607l2.855-0.474V1.881l1.825,0.062
		c-0.021,0.072-0.129,0.113-0.408,0.134v2.431l3.564-0.587V1.088l1.803,0.062c-0.021,0.072-0.15,0.113-0.408,0.134v2.4l3.907-0.639
		c0.107-0.052,0.15-0.072,0.3-0.124l1.16,0.216c-0.021,0.031-0.129,0.072-0.215,0.103c-0.021,1.864-0.086,3.409-0.258,3.821
		c-0.236,0.711-1.116,0.804-3.606,0.762c-0.043-0.195-0.172-0.484-0.365-0.648c0.687,0.021,1.589,0.021,1.868,0.021
		c0.408,0,0.623-0.042,0.751-0.309c0.15-0.257,0.215-1.452,0.215-3.152L57.57,4.364v3.759h-1.396V4.59L52.61,5.188V8.906z"/>
	<path fill="#FFFEFE" d="M69.056,7.464c-1.009,0.309-2.061,0.598-3.113,0.845c-0.193-0.165-0.559-0.422-0.837-0.566
		c3.714-0.824,7.428-2.235,9.146-3.451l2.125,0.062c-0.043,0.072-0.215,0.124-0.43,0.134c2.083,1.185,5.926,2.472,9.231,3.131
		c-0.321,0.165-0.687,0.422-0.923,0.618C83.226,8,82.131,7.711,81.057,7.381v3.101h-1.46v-0.319h-9.124v0.371h-1.417V7.464z
		 M67.467,2.633v1.205h-1.396V1.995h8.18v-1.05l1.911,0.062c-0.021,0.072-0.15,0.124-0.43,0.134v0.854h8.309v1.844h-1.46V2.633
		H67.467z M73.092,3.499c-0.086,0.062-0.236,0.093-0.472,0.093c-1.396,0.793-3.564,1.617-5.518,2.132
		c-0.215-0.134-0.666-0.391-0.945-0.504c1.868-0.464,3.993-1.236,5.282-2.029L73.092,3.499z M79.983,7.042
		c-1.953-0.649-3.778-1.38-4.959-2.07c-1.052,0.659-2.727,1.401-4.68,2.07H79.983z M70.473,9.534h9.124V7.67h-9.124V9.534z
		 M82.731,5.703c-1.181-0.607-3.649-1.504-5.689-2.111l0.967-0.412c2.039,0.577,4.551,1.442,5.796,2.05L82.731,5.703z"/>
	<path fill="#FFFEFE" d="M106.262,5.733h-6.269c1.695,0.752,4.315,1.37,6.87,1.669c-0.322,0.144-0.709,0.391-0.924,0.566
		c-0.515-0.072-1.009-0.145-1.524-0.237v2.781h-1.331v-0.371h-4.229v0.412h-1.288V7.155h4.315c-1.438-0.391-2.727-0.886-3.692-1.421
		h-3.35c-1.03,0.546-2.297,1.02-3.778,1.421h4.38v3.358h-1.353v-0.371h-4.144v0.412h-1.288V7.711
		c-0.473,0.093-0.944,0.186-1.438,0.268c-0.172-0.144-0.623-0.402-0.901-0.515c2.619-0.422,4.873-0.999,6.569-1.73h-6.098V5.105
		h7.343c0.451-0.258,0.815-0.536,1.138-0.824h-6.913V1.428h6.978V4.22l0.193-0.206l1.718,0.237
		c-0.043,0.062-0.215,0.103-0.494,0.113c-0.258,0.257-0.537,0.504-0.88,0.742h10.391V5.733z M93.938,3.705v-1.7h-4.251v1.7H93.938z
		 M94.089,9.534V7.763h-4.144v1.771H94.089z M104.802,1.428v2.853h-7.021V1.428H104.802z M98.854,9.534h4.229V7.763h-4.229V9.534z
		 M103.406,3.705v-1.7h-4.294v1.7H103.406z"/>
	<path fill="#FFFEFE" d="M112.509,9.205c0,0.433,0.451,0.536,2.813,0.536h8.48c1.997,0,2.318-0.227,2.512-1.442
		c0.387,0.103,0.987,0.216,1.396,0.247c-0.301,1.494-0.901,1.854-3.907,1.854h-8.373c-3.35,0-4.337-0.216-4.337-1.185V6.496h7.601
		V4.621h-7.364V4.127c-0.729,0.474-1.503,0.896-2.297,1.256c-0.258-0.134-0.795-0.35-1.159-0.463
		c2.168-0.906,4.271-2.461,5.518-4.027l1.803,0.289c-0.043,0.072-0.236,0.113-0.472,0.103c-0.258,0.299-0.559,0.607-0.881,0.906
		h11.701l0.815,0.021c-0.172,0.566-0.043,4.882-1.138,5.51c-0.451,0.289-0.923,0.351-2.426,0.351c-0.559,0-1.224-0.01-1.911-0.031
		c-0.021-0.206-0.172-0.484-0.408-0.659c1.182,0.042,2.255,0.052,2.662,0.052c0.387,0,0.623-0.021,0.795-0.134
		c0.493-0.278,0.708-1.37,0.901-4.439h-11.765c-0.473,0.392-0.967,0.772-1.503,1.123h8.588v3.142h-7.644V9.205z"/>
	<path fill="#FFFEFE" d="M140.74,7.104c0.58,0.494,1.331,0.947,2.233,1.329c1.31-0.299,2.94-0.762,3.907-1.112l1.288,0.453
		c-0.086,0.051-0.258,0.072-0.451,0.051c-0.987,0.278-2.555,0.68-3.843,0.968c1.567,0.556,3.478,0.968,5.625,1.195
		c-0.301,0.144-0.666,0.402-0.838,0.577c-4.25-0.536-7.535-1.741-9.339-3.46h-0.043c-0.88,0.381-1.996,0.742-3.22,1.061l0.45,0.042
		c-0.021,0.072-0.15,0.124-0.429,0.144v1.236l5.561-0.33l0.043,0.536c-3.285,0.227-6.806,0.464-8.996,0.598
		c0,0.083-0.129,0.124-0.279,0.144l-0.558-0.71c0.815-0.042,1.781-0.093,2.834-0.155V8.494c-1.46,0.329-3.006,0.587-4.423,0.762
		c-0.193-0.165-0.559-0.401-0.838-0.525c2.748-0.299,5.926-0.907,8.009-1.627h-7.708V6.537h8.953V5.62l1.867,0.062
		c-0.021,0.072-0.129,0.124-0.407,0.144v0.711h9.06v0.566H140.74z M129.49,4.683c1.139-0.186,2.727-0.484,4.38-0.793l0.258,0.535
		c-1.396,0.278-2.791,0.557-3.714,0.731c0,0.083-0.086,0.134-0.215,0.165L129.49,4.683z M131.036,1.593
		c0.967,0.298,2.147,0.741,2.684,1.082l-0.88,0.422c-0.537-0.33-1.696-0.803-2.662-1.123L131.036,1.593z M136.296,1.006
		c-0.021,0.062-0.128,0.113-0.429,0.134v4.707h-1.353V0.944L136.296,1.006z M142.329,4.858V3.066h-5.389V2.5h5.389V0.944
		l1.868,0.062c-0.021,0.072-0.15,0.124-0.43,0.145V2.5h5.496v0.566h-5.496v1.792h4.81v0.567h-10.949V4.858H142.329z"/>
	<path fill="#FFFEFE" d="M12.634,20.518h13.654l0.129-0.031l1.46,0.536c-0.064,0.041-0.129,0.072-0.258,0.093
		c-1.739,3.872-5.475,5.891-12.044,7.086c-0.236-0.186-0.666-0.453-0.966-0.607c6.248-1.103,9.854-3.019,11.25-6.365H12.634V20.518z
		 M28.993,18.674c1.288,0,2.34,0.505,2.34,1.133c0,0.618-1.052,1.123-2.34,1.123c-1.31,0-2.361-0.505-2.361-1.123
		C26.632,19.158,27.727,18.674,28.993,18.674z M30.625,19.807c0-0.442-0.73-0.793-1.632-0.793c-0.901,0-1.653,0.351-1.653,0.793
		c0,0.433,0.751,0.793,1.653,0.793C29.938,20.6,30.625,20.219,30.625,19.807z"/>
	<path fill="#FFFEFE" d="M50.141,22.618c-0.043,0.042-0.15,0.083-0.279,0.104c-1.76,3.11-5.346,4.624-11.765,5.479
		c-0.193-0.186-0.601-0.443-0.901-0.598c5.839-0.7,9.468-2.143,10.82-4.531H33.802v-0.701h14.857l0.215-0.062L50.141,22.618z
		 M48.123,20.414H35.885v-0.68h12.238V20.414z"/>
	<path fill="#FFFEFE" d="M69.377,20.332c-0.043,0.052-0.15,0.093-0.279,0.113c-1.159,1.309-2.533,2.441-4.293,3.543
		c2.34,0.896,5.861,2.431,7.857,3.492l-1.31,0.546c-1.889-1.051-5.346-2.616-7.536-3.461c-1.889,1.102-5.152,2.605-8.266,3.461
		c-0.236-0.155-0.751-0.412-1.116-0.557c5.947-1.565,10.648-4.49,12.581-6.726H56.474v-0.7h11.378l0.279-0.052L69.377,20.332z"/>
	<path fill="#FFFEFE" d="M93.916,23.7h-7.492c-0.473,1.978-1.868,3.461-6.033,4.594c-0.322-0.165-0.837-0.36-1.202-0.494
		c3.864-1.01,5.26-2.287,5.711-4.1h-8.76v-0.68h8.867c0.107-0.68,0.107-1.38,0.129-2.204c-2.19,0.236-5.024,0.463-7.386,0.587
		c-0.107-0.195-0.258-0.401-0.451-0.598c7.536-0.433,11.98-1.143,13.312-1.421l1.138,0.607c-0.086,0.021-0.172,0.031-0.279,0.031
		c-0.086,0-0.15,0-0.236-0.011c-1.202,0.217-3.113,0.484-4.809,0.68l0.708,0.031c-0.021,0.093-0.172,0.154-0.45,0.175
		c-0.021,0.772-0.043,1.473-0.129,2.122h7.363V23.7z"/>
	<path fill="#FFFEFE" d="M100.636,22.031c0.645,0.629,1.353,1.617,1.61,2.215l-1.202,0.154c-0.258-0.598-0.923-1.534-1.567-2.193
		L100.636,22.031z M113.453,22.104c-0.043,0.093-0.258,0.113-0.451,0.104c-1.674,3.007-4.83,4.851-10.025,5.86
		c-0.172-0.124-0.559-0.36-0.838-0.474c5.132-0.969,8.072-2.657,9.64-5.727L113.453,22.104z M105.854,21.537
		c0.45,0.69,0.858,1.679,1.009,2.338l-1.267,0.113c-0.129-0.659-0.537-1.606-1.009-2.317L105.854,21.537z"/>
	<path fill="#FFFEFE" d="M135.48,21.229c-0.086,0.051-0.193,0.103-0.322,0.144c-2.254,3.337-5.775,5.479-11.701,6.922
		c-0.257-0.175-0.665-0.412-1.095-0.566c5.625-1.309,9.104-3.368,10.885-6.098h-7.664c-1.245,0.927-2.898,1.823-4.81,2.544
		c-0.3-0.145-0.794-0.34-1.224-0.474c2.92-1.082,5.389-2.657,6.849-4.47l2.04,0.277c-0.086,0.104-0.344,0.134-0.623,0.134
		c-0.429,0.454-0.88,0.886-1.374,1.298h7.558l0.258-0.062L135.48,21.229z"/>
</g>
</svg>
