<?xml version="1.0" encoding="utf-8"?>
<!-- Generator: Adobe Illustrator 15.1.0, SVG Export Plug-In . SVG Version: 6.00 Build 0)  -->
<!DOCTYPE svg PUBLIC "-//W3C//DTD SVG 1.1//EN" "http://www.w3.org/Graphics/SVG/1.1/DTD/svg11.dtd">
<svg version="1.1" id="レイヤー_1" xmlns="http://www.w3.org/2000/svg" xmlns:xlink="http://www.w3.org/1999/xlink" x="0px"
	 y="0px" width="150px" height="30px" viewBox="0 0 150 30" enable-background="new 0 0 150 30" xml:space="preserve">
<g>
	<path fill="#FDFDFE" d="M35.448,6.798H14.983c-0.714,1.221-1.502,2.413-2.366,3.575h18.137v15.116c0,2.471-1.502,2.528-8.224,2.528
		c-0.113-0.552-0.488-1.395-0.864-1.947c1.314,0.029,2.554,0.029,3.567,0.029c2.704,0,3.004,0,3.004-0.64v-3.313H12.354v5.871H9.838
		V13.629c-1.915,1.977-4.13,3.75-6.722,5.203c-0.375-0.436-1.164-1.162-1.69-1.569c4.657-2.529,8.224-6.366,10.665-10.464H2.215
		v-1.89h10.928c0.676-1.279,1.202-2.587,1.652-3.866l3.267,0.639c-0.075,0.204-0.375,0.32-0.826,0.32
		c-0.375,0.959-0.789,1.918-1.277,2.907h19.489V6.798z M28.238,15.402v-3.255H12.354v3.255H28.238z M12.354,20.431h15.884v-3.313
		H12.354V20.431z"/>
	<path fill="#FDFDFE" d="M57.484,16.071h15.659v1.686H39.572v-1.686h15.396v-2.355H43.402v-1.569h11.566v-2.122H44.716V8.397h10.251
		V6.159l3.267,0.174c-0.038,0.204-0.225,0.349-0.751,0.407v1.657h10.552v1.628H57.484v2.122h12.054v1.569H57.484V16.071z
		 M43.139,5.839v3.285h-2.479V4.066h14.27V1.014l3.342,0.146c-0.038,0.203-0.263,0.349-0.751,0.407v2.5h14.608v5.058h-2.554V5.839
		H43.139z M44.979,28.076v-8.43h23.057v8.313h-2.554v-0.901H47.42v1.018H44.979z M65.482,21.274H47.42v4.127h18.063V21.274z"/>
	<path fill="#FDFDFE" d="M106.219,25.111c-3.305,0.465-7.698,0.668-11.528,0.668c-3.079,0-5.783-0.145-7.247-0.378
		c-4.544-0.784-6.497-2.993-6.497-5.552c0-2.18,1.577-4.447,3.83-6.191l2.179,0.872c-2.104,1.657-3.305,3.546-3.305,5.146
		c0,1.715,1.464,3.227,4.693,3.808c1.277,0.203,3.455,0.319,6.009,0.319c3.643,0,8.073-0.232,11.679-0.784L106.219,25.111z
		 M89.358,10.461c1.952-1.192,4.618-2.587,6.646-3.372V7.06c-2.854,0.261-9.388,0.349-13.557,0.349c0-0.552,0-1.512-0.037-2.035
		h2.027c4.807,0,14.646-0.058,19.377-0.93l0.301,2.122c-1.239,0.145-2.141,0.291-3.943,0.872c-2.103,0.669-5.745,2.238-8.674,4.07
		L89.358,10.461z M106.182,14.588c-1.089-1.279-3.418-3.023-5.032-3.953l1.239-0.901c1.803,1.018,3.98,2.704,5.145,3.924
		L106.182,14.588z M110.124,11.827c-1.051-1.163-3.267-2.907-5.031-3.924l1.239-0.93c1.84,1.076,4.018,2.732,5.145,3.953
		L110.124,11.827z"/>
	<path fill="#FDFDFE" d="M145.228,9.443c-0.112,0.32-0.525,0.523-1.089,0.523c-0.413,2.005-1.014,4.127-1.652,5.93
		c2.028,0.669,4.169,1.425,6.309,2.268l-1.201,1.947c-2.028-0.785-3.98-1.541-5.896-2.18c-1.803,4.186-4.394,7.237-8.374,9.272
		c-0.526-0.407-1.465-0.901-2.141-1.221c3.942-2.006,6.384-4.738,8.111-8.896c-3.793-1.162-7.248-1.976-10.026-2.15
		c-2.592,7.325-4.92,9.243-9.426,9.243s-5.37-2.79-5.37-4.563c0-4.505,6.046-6.599,12.768-6.627
		c0.789-2.326,1.502-5.174,2.028-8.197c-1.766,0.116-7.773,0.436-10.628,0.582c-0.149,0.203-0.45,0.349-0.788,0.407l-0.338-2.354
		c3.229-0.087,10.214-0.436,12.467-0.61c0.413-0.029,0.563-0.174,0.826-0.32l2.328,1.076c-0.188,0.232-0.487,0.349-0.938,0.465
		c-0.601,3.227-1.502,6.569-2.328,9.069c2.892,0.174,6.347,0.959,10.102,2.064c0.639-1.744,1.201-3.982,1.614-6.337L145.228,9.443z
		 M126.64,14.821c-5.407,0.058-9.726,1.715-9.726,4.796c0,1.628,1.014,2.732,2.778,2.732
		C122.434,22.35,124.236,21.623,126.64,14.821z"/>
</g>
</svg>
